Results
version=1
nRows=12
nColumns=39
inDegrees=yes
endheader
time	/jointset/UpperExo_to_pelvis/hip_exo_r/value	/jointset/UpperExo_to_pelvis/hip_exo_r/speed	/jointset/UpperExo_to_pelvis/exo_tx/value	/jointset/UpperExo_to_pelvis/exo_tx/speed	/jointset/LowExo_to_UpperExo/LowExo_to_UpperExo_rz/value	/jointset/LowExo_to_UpperExo/LowExo_to_UpperExo_rz/speed	/jointset/ground_pelvis/pelvis_tilt/value	/jointset/ground_pelvis/pelvis_tilt/speed	/jointset/ground_pelvis/pelvis_tx/value	/jointset/ground_pelvis/pelvis_tx/speed	/jointset/ground_pelvis/pelvis_ty/value	/jointset/ground_pelvis/pelvis_ty/speed	/jointset/hip_r/hip_flexion_r/value	/jointset/hip_r/hip_flexion_r/speed	/jointset/knee_r/knee_angle_r/value	/jointset/knee_r/knee_angle_r/speed	/jointset/tib_pat_r/knee_angle_pat_r/value	/jointset/tib_pat_r/knee_angle_pat_r/speed	/jointset/ankle_r/ankle_angle_r/value	/jointset/ankle_r/ankle_angle_r/speed	/forceset/bifemlh_r/activation	/forceset/bifemlh_r/fiber_length	/forceset/bifemsh_r/activation	/forceset/bifemsh_r/fiber_length	/forceset/glut_max2_r/activation	/forceset/glut_max2_r/fiber_length	/forceset/psoas_r/activation	/forceset/psoas_r/fiber_length	/forceset/rect_fem_r/activation	/forceset/rect_fem_r/fiber_length	/forceset/vas_int_r/activation	/forceset/vas_int_r/fiber_length	/forceset/med_gas_r/activation	/forceset/med_gas_r/fiber_length	/forceset/soleus_r/activation	/forceset/soleus_r/fiber_length	/forceset/tib_ant_r/activation	/forceset/tib_ant_r/fiber_length
      2.62101521	     93.22299922	     -0.00000000	      0.01999047	     -0.00000000	    -67.86472069	   -157.41729422	      1.14702713	     -0.00000000	      0.05768549	     -0.00000000	      1.06004667	     -0.00000000	     90.00020523	     -0.00000000	    -56.53728942	     97.99420023	     -0.98676185	      1.71032144	   -145.38519435	    -77.36817351	     -0.31201358	      0.16474153	     -0.31201358	      0.16811432	     -0.31201358	      0.15698474	     -0.31201358	      0.04239262	     -0.31201358	      0.09067553	     -0.31201358	      0.12698408	     -0.31201358	      0.03442756	     -0.31201358	      0.04110050	     -0.31201358	      0.12060725
      2.62252727	     93.22299922	     -0.00000000	      0.01999047	     -0.00000000	    -68.10189282	   -155.93035214	      1.14702713	     -0.00000000	      0.05768549	     -0.00000000	      1.06004667	     -0.00000000	     90.00020523	     -0.00000000	    -56.38942686	     97.47131331	     -0.98418116	      1.70119534	   -145.49901669	    -73.01584575	     -0.31220826	      0.16482338	     -0.31220826	      0.16819877	     -0.31220826	      0.15698474	     -0.31220826	      0.04239262	     -0.31220826	      0.09056228	     -0.31220826	      0.12687559	     -0.31220826	      0.03449589	     -0.31220826	      0.04112838	     -0.31220826	      0.12056534
      2.62419644	     93.22299922	     -0.00000000	      0.01999047	     -0.00000000	    -68.35908428	   -151.80684327	      1.14702713	     -0.00000000	      0.05768549	     -0.00000000	      1.06004667	     -0.00000000	     90.00020523	     -0.00000000	    -56.22774435	     96.12388476	     -0.98135927	      1.67767828	   -145.61609466	    -67.07627782	     -0.31242316	      0.16491318	     -0.31242316	      0.16829145	     -0.31242316	      0.15698474	     -0.31242316	      0.04239262	     -0.31242316	      0.09043533	     -0.31242316	      0.12675584	     -0.31242316	      0.03456876	     -0.31242316	      0.04115727	     -0.31242316	      0.12052053
      2.62586561	     93.22299922	     -0.00000000	      0.01999047	     -0.00000000	    -68.60725671	   -145.13646952	      1.14702713	     -0.00000000	      0.05768549	     -0.00000000	      1.06004667	     -0.00000000	     90.00020523	     -0.00000000	    -56.06897211	     93.98858679	     -0.97858817	      1.64041030	   -145.72231283	    -60.01737409	     -0.31263807	      0.16500170	     -0.31263807	      0.16838283	     -0.31263807	      0.15698474	     -0.31263807	      0.04239262	     -0.31263807	      0.09030759	     -0.31263807	      0.12663705	     -0.31263807	      0.03463800	     -0.31263807	      0.04118412	     -0.31263807	      0.12047795
      2.62765026	     93.22299922	     -0.00000000	      0.01999047	     -0.00000000	    -68.85789929	   -135.29386548	      1.14702713	     -0.00000000	      0.05768549	     -0.00000000	      1.06004667	     -0.00000000	     90.00020523	     -0.00000000	    -55.90389216	     90.87036863	     -0.97570698	      1.58598713	   -145.82185036	    -51.34961855	     -0.31286784	      0.16509408	     -0.31286784	      0.16847825	     -0.31286784	      0.15698474	     -0.31286784	      0.04239262	     -0.31286784	      0.09017154	     -0.31286784	      0.12651220	     -0.31286784	      0.03470691	     -0.31286784	      0.04120978	     -0.31286784	      0.12043564
      2.62943492	     93.22299922	     -0.00000000	      0.01999047	     -0.00000000	    -69.08858734	   -122.80376647	      1.14702713	     -0.00000000	      0.05768549	     -0.00000000	      1.06004667	     -0.00000000	     90.00020523	     -0.00000000	    -55.74511069	     86.93980718	     -0.97293572	      1.51738589	   -145.90498446	    -41.65952782	     -0.31309762	      0.16518334	     -0.31309762	      0.16857048	     -0.31309762	      0.15698474	     -0.31309762	      0.04239262	     -0.31309762	      0.09003741	     -0.31309762	      0.12639068	     -0.31309762	      0.03476953	     -0.31309762	      0.04123190	     -0.31309762	      0.12039737
      2.63163536	     93.22299922	     -0.00000000	      0.01999047	     -0.00000000	    -69.33882606	   -104.05560085	      1.14702713	     -0.00000000	      0.05768549	     -0.00000000	      1.06004667	     -0.00000000	     90.00020523	     -0.00000000	    -55.56006540	     81.07194372	     -0.96970607	      1.41497235	   -145.98243438	    -28.54767205	     -0.31338092	      0.16528791	     -0.31338092	      0.16867863	     -0.31338092	      0.15698474	     -0.31338092	      0.04239262	     -0.31338092	      0.08987659	     -0.31338092	      0.12624695	     -0.31338092	      0.03483675	     -0.31338092	      0.04125361	     -0.31338092	      0.12035669
      2.63383580	     93.22299922	     -0.00000000	      0.01999047	     -0.00000000	    -69.54411924	    -82.03367262	      1.14702713	     -0.00000000	      0.05768549	     -0.00000000	      1.06004667	     -0.00000000	     90.00020523	     -0.00000000	    -55.38905148	     74.21276165	     -0.96672132	      1.29525704	   -146.02990393	    -14.47012619	     -0.31366423	      0.16538532	     -0.31366423	      0.16877943	     -0.31366423	      0.15698474	     -0.31366423	      0.04239262	     -0.31366423	      0.08972283	     -0.31366423	      0.12611120	     -0.31366423	      0.03489185	     -0.31366423	      0.04126868	     -0.31366423	      0.12032412
      2.63603623	     93.22299922	     -0.00000000	      0.01999047	     -0.00000000	    -69.69782722	    -57.26230033	      1.14702713	     -0.00000000	      0.05768549	     -0.00000000	      1.06004667	     -0.00000000	     90.00020523	     -0.00000000	    -55.23406686	     66.53325002	     -0.96401633	      1.16122427	   -146.04568767	      0.18404104	     -0.31394754	      0.16547433	     -0.31394754	      0.16887175	     -0.31394754	      0.15698474	     -0.31394754	      0.04239262	     -0.31394754	      0.08957800	     -0.31394754	      0.12598262	     -0.31394754	      0.03493406	     -0.31394754	      0.04127675	     -0.31394754	      0.12030038
      2.63823667	     93.22299922	     -0.00000000	      0.01999047	     -0.00000000	    -69.79453621	    -30.32914854	      1.14702713	     -0.00000000	      0.05768549	     -0.00000000	      1.06004667	     -0.00000000	     90.00020523	     -0.00000000	    -55.09670935	     58.22436897	     -0.96161899	      1.01620694	   -146.02898116	     14.98684682	     -0.31423084	      0.16555422	     -0.31423084	      0.16895471	     -0.31423084	      0.15698474	     -0.31423084	      0.04239262	     -0.31423084	      0.08944367	     -0.31423084	      0.12586446	     -0.31423084	      0.03496328	     -0.31423084	      0.04127733	     -0.31423084	      0.12028596
      2.63995555	     93.22299922	     -0.00000000	      0.01999047	     -0.00000000	    -69.82775685	     -8.19571423	      1.14702713	     -0.00000000	      0.05768549	     -0.00000000	      1.06004667	     -0.00000000	     90.00020523	     -0.00000000	    -55.00244181	     51.42476467	     -0.95997371	      0.89753146	   -145.99334733	     26.44927891	     -0.31445215	      0.16560985	     -0.31445215	      0.16901259	     -0.31445215	      0.15698474	     -0.31445215	      0.04239262	     -0.31445215	      0.08934682	     -0.31445215	      0.12578067	     -0.31445215	      0.03497737	     -0.31445215	      0.04127114	     -0.31445215	      0.12028132
      2.64167443	     93.22299922	     -0.00000000	      0.01999047	     -0.00000000	    -69.82236016	     14.54995895	      1.14702713	     -0.00000000	      0.05768549	     -0.00000000	      1.06004667	     -0.00000000	     90.00020523	     -0.00000000	    -54.92001661	     44.46215853	     -0.95853512	      0.77601106	   -145.93818831	     37.67926371	     -0.31467345	      0.16565931	     -0.31467345	      0.16906418	     -0.31467345	      0.15698474	     -0.31467345	      0.04239262	     -0.31467345	      0.08925755	     -0.31467345	      0.12570488	     -0.31467345	      0.03498430	     -0.31467345	      0.04125940	     -0.31467345	      0.12028185
